Coordinates
version=1
nRows=10
nColumns=40
inDegrees=yes

Units are S.I. units (second, meters, Newtons, ...)
Angles are in degrees.

endheader
time	pelvis_tilt	pelvis_list	pelvis_rotation	pelvis_tx	pelvis_ty	pelvis_tz	hip_flexion_r	hip_adduction_r	hip_rotation_r	knee_angle_r	knee_angle_r_beta	ankle_angle_r	subtalar_angle_r	mtp_angle_r	hip_flexion_l	hip_adduction_l	hip_rotation_l	knee_angle_l	knee_angle_l_beta	ankle_angle_l	subtalar_angle_l	mtp_angle_l	lumbar_extension	lumbar_bending	lumbar_rotation	arm_flex_r	arm_add_r	arm_rot_r	elbow_flex_r	pro_sup_r	wrist_flex_r	wrist_dev_r	arm_flex_l	arm_add_l	arm_rot_l	elbow_flex_l	pro_sup_l	wrist_flex_l	wrist_dev_l
     50.59000000	     -3.30711366	     -5.54299977	      1.24921955	      0.82587042	      0.92869950	      0.50025999	     12.80558210	      3.38452945	    -15.90359761	     18.58295735	     18.58295735	     10.68913600	     -1.38313588	     -3.42708307	     26.21643434	    -12.20424385	      1.93928349	     65.47432667	     65.47432667	      7.38477962	    -17.65161681	     10.03322285	     -9.50873760	      7.58548658	      1.84055520	     13.05841948	    -15.68613648	     -5.23165410	     56.28444545	     45.24243830	      0.00000000	      0.00000000	      6.37821278	     -8.39212703	     -7.07636991	     47.19136928	     45.39236718	      0.00000000	      0.00000000
     50.60357143	     -3.43134264	     -5.34342551	      1.69941983	      0.82384241	      0.92949140	      0.50089958	     12.14360777	      3.30447443	    -16.23972953	     17.79150685	     17.79150685	     10.79444670	     -1.14614316	     -3.50978361	     27.76283398	    -11.80950928	      2.22112356	     63.92486912	     63.92486912	      7.69429459	    -17.88815696	     10.08543723	     -9.51308376	      7.33425967	      1.56702840	     15.28059286	    -15.68691452	     -5.34190634	     57.87978704	     45.20547635	      0.00000000	      0.00000000	      5.08848028	     -8.17359574	     -6.84000543	     45.47349914	     45.36000875	      0.00000000	      0.00000000
     50.61714286	     -3.50689579	     -5.14766040	      2.16721467	      0.82192139	      0.93029030	      0.50148655	     11.36390616	      3.26274280	    -16.54178158	     16.85849262	     16.85849262	     10.64435110	     -1.05182815	     -4.26089690	     29.05658450	    -11.39879103	      2.45558168	     62.02735752	     62.02735752	      8.02662394	    -17.98634383	     10.21920910	     -9.57372691	      7.10803895	      1.83990773	     16.69076901	    -16.41014553	     -4.85881434	     60.70893150	     45.11362829	      0.00000000	      0.00000000	      4.78923175	     -7.72413329	     -6.34779000	     42.02837039	     45.35426626	      0.00000000	      0.00000000
     50.63071429	     -3.57758796	     -5.00042377	      2.55218610	      0.82003006	      0.93097198	      0.50215498	     10.61420719	      3.30602635	    -16.66960157	     15.98679178	     15.98679178	     10.70122788	     -1.03192258	     -4.25661024	     30.18155139	    -11.03464410	      2.62031981	     59.83424765	     59.83424765	      8.27802967	    -18.10796845	     10.49410782	     -9.68285808	      6.90359565	      1.76189765	     18.85607421	    -16.46829241	     -5.08251594	     62.48060756	     45.07616296	      0.00000000	      0.00000000	      3.45359406	     -7.54094240	     -6.07506782	     40.69428198	     45.31660466	      0.00000000	      0.00000000
     50.64428571	     -3.65088219	     -4.87439921	      2.94526993	      0.81821314	      0.93148028	      0.50266757	      9.85657016	      3.36041649	    -16.86906371	     15.06904914	     15.06904914	     10.49898862	     -1.01249665	     -5.07932016	     31.13433861	    -10.64405347	      2.79047811	     57.30841085	     57.30841085	      8.64889446	    -18.07373438	     10.92973146	     -9.78620205	      6.78225361	      2.24040540	     20.15917825	    -17.22511649	     -4.97373819	     65.59704875	     44.99911135	      0.00000000	      0.00000000	      3.14488685	     -7.19051723	     -5.24895240	     37.57989084	     45.27304344	      0.00000000	      0.00000000
     50.65785714	     -3.72155139	     -4.73747794	      3.34977104	      0.81650606	      0.93188374	      0.50305117	      9.14715195	      3.38722280	    -17.03806488	     14.27801740	     14.27801740	     10.58070400	     -0.98703862	     -5.09854275	     31.87550350	    -10.18425882	      2.97504649	     54.38089127	     54.38089127	      8.92781287	    -18.02395985	     11.19522525	     -9.88022984	      6.59565797	      2.09637650	     22.19203539	    -17.27131985	     -5.22746473	     67.32977922	     44.96554766	      0.00000000	      0.00000000	      1.88888974	     -7.06769091	     -4.97052314	     36.35313751	     45.23296545	      0.00000000	      0.00000000
     50.67142857	     -3.83728551	     -4.64948870	      3.71783784	      0.81486861	      0.93204114	      0.50333623	      8.49733256	      3.44532818	    -17.29422046	     13.48868289	     13.48868289	     10.49445661	     -0.84439446	     -5.69888912	     32.47610026	     -9.76515922	      3.11792488	     51.09193735	     51.09193735	      9.08304738	    -17.83827541	     10.95061108	     -9.92419416	      6.49788837	      2.41187564	     23.60098836	    -17.87279985	     -5.13989711	     70.15031312	     44.89954363	      0.00000000	      0.00000000	      1.32414520	     -6.84324234	     -4.21680169	     33.92315263	     45.16999991	      0.00000000	      0.00000000
     50.68500000	     -3.91844462	     -4.52205614	      4.04184594	      0.81332735	      0.93210196	      0.50349571	      7.92721165	      3.43858957	    -17.39158581	     12.95184208	     12.95184208	     10.65993538	     -0.87375726	     -5.74946351	     32.83197543	     -9.26323147	      3.25721733	     47.48370126	     47.48370126	      9.41846677	    -17.52242575	     11.11808570	     -9.97979871	      6.32203909	      2.40290411	     25.54681611	    -17.93895173	     -5.36258379	     71.77527418	     44.86747568	      0.00000000	      0.00000000	      0.13584264	     -6.73478089	     -3.99787283	     32.95825744	     45.13178739	      0.00000000	      0.00000000
     50.69857143	     -4.02055161	     -4.45881709	      4.37313302	      0.81192679	      0.93198113	      0.50357541	      7.37520655	      3.48753135	    -17.57010640	     12.41857321	     12.41857321	     10.80436322	     -0.80122564	     -5.88061694	     33.04472919	     -8.81028145	      3.41698310	     43.60239324	     43.60239324	      9.71637629	    -16.98560629	     11.05253331	    -10.04445001	      6.23897717	      2.26145868	     27.40582202	    -17.92874699	     -5.39794844	     73.83816871	     44.81527392	      0.00000000	      0.00000000	     -1.02366577	     -6.63268919	     -3.70644012	     31.76586987	     45.08481633	      0.00000000	      0.00000000
     50.71214286	     -4.17618739	     -4.49077249	      4.69610534	      0.81062139	      0.93153101	      0.50348593	      6.90216864	      3.60687232	    -17.88555494	     11.91657374	     11.91657374	     10.90592652	     -0.57659008	     -6.33477039	     33.17102176	     -8.43809159	      3.57769222	     39.50700824	     39.50700824	      9.57417507	    -16.28783409	      9.76118581	    -10.02124901	      6.29894567	      2.43450287	     28.77049937	    -18.40855043	     -5.15209798	     77.07443363	     44.72990110	      0.00000000	      0.00000000	     -1.78144046	     -6.46677704	     -2.98434280	     29.93017972	     45.00172535	      0.00000000	      0.00000000
